<svg xmlns="http://www.w3.org/2000/svg" viewBox="140 220 750 390">
  <path fill="#00DC82" d="
    M 396.84 339.57
    C 397.76 327.55 396.14 316.43 393.36 304.86
    A 0.58 0.58 0.0 0 1 394.24 304.24
    Q 403.73 310.47 414.08 319.41
    Q 437.05 339.27 451.37 365.64
    C 455.78 373.75 461.21 385.59 464.37 395.80
    Q 476.42 434.66 475.29 475.23
    Q 474.88 490.06 473.36 505.61
    A 0.44 0.43 -64.0 0 1 472.62 505.87
    Q 471.47 504.67 470.02 503.49
    C 457.75 493.51 449.37 483.61 438.02 470.99
    C 412.50 442.62 383.42 419.52 348.49 404.63
    Q 307.51 387.16 262.22 384.38
    A 0.12 0.11 53.3 0 0 262.19 384.61
    C 276.78 388.59 291.34 393.88 305.10 401.20
    C 313.71 405.77 319.12 408.20 327.56 413.12
    Q 364.99 434.93 396.48 465.52
    Q 399.37 468.33 407.42 476.65
    C 417.41 486.99 427.19 498.63 435.91 508.09
    C 452.83 526.43 471.82 542.90 493.90 553.58
    C 526.39 569.31 569.14 572.38 601.00 552.02
    C 609.02 546.90 616.54 539.80 620.09 530.86
    C 625.07 518.29 623.42 505.21 615.68 494.16
    Q 613.14 490.54 606.57 484.54
    Q 592.58 471.78 580.22 460.77
    Q 540.57 425.47 514.33 402.43
    C 509.81 398.45 506.54 393.97 505.54 387.95
    Q 503.75 377.25 508.67 368.63
    Q 511.01 364.52 521.41 355.35
    Q 603.19 283.14 658.29 234.95
    A 0.45 0.45 0.0 0 1 658.90 234.97
    C 666.98 242.81 670.58 254.67 670.67 265.73
    Q 670.84 286.41 656.96 300.96
    Q 652.31 305.83 644.42 312.67
    Q 605.99 346.00 565.72 381.61
    A 0.60 0.59 -44.7 0 0 565.71 382.49
    Q 579.22 394.91 591.26 405.51
    Q 611.32 423.17 611.99 423.75
    Q 626.93 436.79 645.86 453.62
    Q 655.35 462.06 658.83 467.15
    Q 664.35 475.23 667.25 484.74
    C 678.58 521.92 658.22 559.28 625.81 577.34
    C 601.96 590.63 576.54 595.73 549.26 595.81
    C 506.51 595.94 470.01 577.44 437.75 550.68
    A 1.57 1.55 -40.3 0 0 435.96 550.54
    Q 426.19 556.28 415.18 560.62
    C 368.41 579.06 315.82 579.21 268.49 561.76
    Q 261.82 559.29 255.16 555.71
    A 0.28 0.28 0.0 0 1 255.23 555.19
    C 268.67 552.25 281.07 547.94 292.19 539.47
    A 0.18 0.18 0.0 0 0 292.09 539.15
    Q 282.41 538.90 272.04 536.44
    C 227.76 525.94 189.39 496.92 168.19 456.28
    Q 162.95 446.24 158.99 436.53
    Q 156.82 431.21 155.72 426.58
    A 0.50 0.49 -83.3 0 1 156.42 426.02
    Q 171.29 433.59 187.81 436.08
    A 0.29 0.28 -16.4 0 0 188.07 435.61
    C 173.92 419.87 163.93 402.29 156.53 382.83
    Q 151.45 369.45 148.28 351.92
    C 142.23 318.42 144.66 282.63 153.56 250.26
    Q 157.62 235.50 161.96 222.85
    A 0.66 0.66 0.0 0 1 163.16 222.74
    Q 165.28 226.44 168.43 230.08
    C 183.45 247.49 204.97 258.60 227.02 264.72
    Q 258.32 273.39 288.80 278.68
    C 330.13 285.86 374.53 301.57 396.53 339.64
    A 0.17 0.17 0.0 0 0 396.84 339.57
    Z"
  />
  <path fill="#047857" d="
    M 818.35 382.52
    A 0.62 0.62 0.0 0 0 818.30 381.65
    Q 811.76 375.76 791.59 358.16
    Q 743.55 316.24 730.65 304.38
    Q 724.14 298.39 719.57 289.37
    C 711.74 273.87 711.84 257.14 720.24 241.75
    Q 722.13 238.29 724.84 235.38
    A 1.04 1.04 0.0 0 1 726.28 235.29
    C 733.97 241.80 740.70 248.45 747.60 254.45
    C 764.92 269.50 781.30 284.47 800.36 301.09
    Q 854.48 348.28 863.72 356.54
    C 872.95 364.78 880.05 372.00 878.41 385.49
    C 877.25 395.13 871.03 401.74 863.97 407.71
    C 846.07 422.82 818.17 448.00 801.61 462.35
    Q 769.11 490.51 738.00 518.65
    C 734.44 521.87 729.93 525.11 726.69 528.73
    A 0.57 0.56 -42.6 0 1 725.82 528.70
    C 723.81 526.07 720.37 522.19 718.59 518.67
    C 707.81 497.38 715.87 473.16 732.92 458.11
    Q 790.12 407.61 803.94 395.23
    Q 806.39 393.05 811.22 388.95
    Q 817.09 383.96 818.35 382.52
    Z"
  />
</svg>
